<?xml version="1.0" standalone="no"?>
<!DOCTYPE svg PUBLIC "-//W3C//DTD SVG 1.1//EN" "http://www.w3.org/Graphics/SVG/1.1/DTD/svg11.dtd">
<svg xmlns="http://www.w3.org/2000/svg">
  <defs>
    <font id="Raleway" horiz-adv-x="534">
      <font-face font-family="Raleway Thin ExtraBold" units-per-em="1000" panose-1="0 0 0 0 0 0 0 0 0 0" ascent="940" descent="-234" alphabetic="0" />
      <glyph unicode=" " glyph-name="gid205" horiz-adv-x="230" />
      <glyph unicode="!" glyph-name="gid172" horiz-adv-x="309" d="M71,282l91,435H322L231,282H71ZM10,0L46,166H206L170,0H10Z" />
      <glyph unicode="&quot;" glyph-name="gid178" horiz-adv-x="427" d="M96,498l49,228H280L231,498H96Zm180,0l49,228H460L411,498H276Z" />
      <glyph unicode="#" glyph-name="gid174" horiz-adv-x="708" d="M696,412H550L503,298H625L600,179H449L370,0H242l80,179H243L165,0H37l79,179H10L35,298H170l48,114H106l24,110H269l83,188H480L396,522h79l82,188H685L601,522H720L696,412ZM376,298l47,114H345L297,298h79Z" />
      <glyph unicode="$" glyph-name="gid212" horiz-adv-x="620" d="M231,79l69-1L258-123H188L231,79Zm16,18L356,610l48,12L292,95l-45,2ZM388,815h68L419,637l-71-12l40,190ZM529,502q-1,5-15.5,15.5t-38,22.5T423,561t-59,9q-28,0-48-8.5t-30.5-24T275,500q0-19 14.5-31.5t41.5-22T394,424q51-16 89-37.5t59-53T563,252q0-71-26.5-121T466,50.5T367.5,6T257-8Q183-8 110,15.5T-14,80L88,223q3-5 20-18.5t45-28T216.5,151T291,140q48,0 68,18t20,45q0,23-19.5,37T308,265t-70,24q-47,17-79,38t-48,49.5T95,444q0,65 25.5,115.5t69,85t98,53T400,716q49,0 91-12t77-30t61-36L529,502Z" />
      <glyph unicode="%" glyph-name="gid228" horiz-adv-x="790" d="M223,411q-61,0-98,37.5T88,540q0,49 28.5,90t74,65.5T288,720q60,0 97.5-37T423,591q0-49-28.5-90t-74-65.5T223,411Zm16,78q18,0 34.5,13.5T301,538t11,46q0,25-11,41.5T272,642q-17,0-34.5-13t-28-35T199,547q0-24 11-41t29-17ZM525-10q-60,0-97.5,37.5T390,119q0,48 29,89.5t74.5,66T591,299q60,0 97-37t37-92q0-49-28.5-90t-74-65.5T525-10Zm17,78q18,0 34,13t27,35t11,47q0,24-11,41t-29,17q-17,0-34-13t-28-35t-11-47q0-24 11-41t30-17ZM52,56L390,380L703,719l58-64L435,339L110-9L52,56Z" />
      <glyph unicode="&amp;" glyph-name="gid230" horiz-adv-x="712" d="M202-10Q139-10 97.5,15t-63,66.5T13,170q0,51 21.5,89.5t58,68.5t80,56T262,436l70-104q-58-27-94-49.5T185.5,238T169,186q0-36 22.5-55T246,112q38,0 78,21t75.5,60.5t62,95.5T498,416H629q-22-105-67.5-185T455.5,98t-126-80.5T202-10Zm-4,357q-25,36-40.5,64.5t-23,53T127,515q0,60 32.5,106t85,72T356,719q41,0 78-15t63.5-46T535,579L423,528q-9,38-31,56.5T344,603q-16,0-31.5-7.5T287,574t-10-32q0-13 6.5-26.5t20.5-33T340,431L638,0H431L198,347Zm311,69H682L667,305H494l15,111Z" />
      <glyph unicode="&apos;" glyph-name="gid179" horiz-adv-x="247" d="M96,497l49,229H280L231,497H96Z" />
      <glyph unicode="(" glyph-name="gid188" horiz-adv-x="319" d="M31,265q0,87 32.5,168t88,162T275,764l111-50q-46-61-84-119T237,481T195.5,372.5T181,273q0-41 6.5-87.5t17.5-94T231-2L101-59Q82-12 66,42.5T40.5,154T31,265Z" />
      <glyph unicode=")" glyph-name="gid189" horiz-adv-x="318" d="M308,431q0-68-20.5-132t-55-125t-78-119T64-59L-40-2Q16,74 60.5,143T131,280.5T157,425q0,57-9,115T127.5,645T108,714l133,50q28-82 47.5-168.5T308,431Z" />
      <glyph unicode="*" glyph-name="gid165" horiz-adv-x="346" d="M114,510l61,75l-63,21l35,67l63-34l11,80h82l-22-80l77,34l6-67l-73-21l31-75l-68-39l-28,79l-61-79l-51,39Z" />
      <glyph unicode="+" glyph-name="gid217" horiz-adv-x="433" d="M393,419V291H298V187H154V291H60V419h94V523H298V419h95Z" />
      <glyph unicode="," glyph-name="gid170" horiz-adv-x="242" d="M-20-135L40,2H-9L25,163H160L125,2L50-135H-20Z" />
      <glyph unicode="-" glyph-name="gid192" horiz-adv-x="400" d="M32,203L63,347H357L326,203H32Z" />
      <glyph unicode="." glyph-name="gid175" horiz-adv-x="238" d="M-9,0L25,163H156L121,0H-9Z" />
      <glyph unicode="/" glyph-name="gid181" horiz-adv-x="729" d="M782,710L149,0H-27L606,710H782Z" />
      <glyph unicode="0" glyph-name="gid128" horiz-adv-x="595" d="M231-10q-59,0-103,30T60.5,103.5T37,225q0,77 26.5,144.5t72,119t104,80T361,597q59,0 102.5-30.5t67-83.5T554,361q0-77-26.5-144.5T455.5,98T352,18.5T231-10Zm31,147q25,0 47.5,16t41,45.5t29,66.5T390,344q0,47-15.5,76.5T330,450q-26,0-50-16.5t-42-46t-28.5-67T199,242q0-47 16.5-76T262,137Z" />
      <glyph unicode="1" glyph-name="gid129" horiz-adv-x="503" d="M28,144H163l55,255q-11-12-31.5-24T141,352T91.5,334.5T49,328L80,476q16,0 42,10.5T175.5,513T225,545t29,26H417L327,144H448L417,0H-2L28,144Z" />
      <glyph unicode="2" glyph-name="gid130" horiz-adv-x="563" d="M-28,0Q-18,47-3,84.5t38.5,68t57.5,56T173,258q53,27 88,44.5t55.5,31t29,27T354,392q0,15-6.5,26t-19,17.5T296,442q-18,0-35.5-5T226,422t-34-24t-35-30L81,486q20,17 49.5,34T196,550.5t76.5,22T354,581q61,0 101-17.5t61-49T537,440q0-39-12.5-70T491,315.5T443,273t-56-36q-15-9-33-19t-35.5-22T284,171t-30-27H486L456,0H-28Z" />
      <glyph unicode="3" glyph-name="gid131" horiz-adv-x="549" d="M156-147q-72,0-123.5,22.5T-52-58L57,56q20-27 49-42T179-1q43,0 70.5,12T290,45.5T303,101q0,35-27.5,53.5T190,173H162l24,115h32q38,0 67.5,12.5t45.5,35T347,386q0,26-16.5,39.5T285,439q-37,0-72.5-19T147,364L71,480q28,29 69.5,50.5T232,564t100,12q90,0 142.5-40.5T527,429q0-45-22.5-86t-59-69.5T366,237q47-9 73.5-48T466,95q0-72-39.5-126.5t-109-85T156-147Z" />
      <glyph unicode="4" glyph-name="gid132" horiz-adv-x="561" d="M218,10H-39L-8,153L388,571H498L409,154h84L462,10H378L349-127H189L218,10Zm49,144l38,177L151,154H267Z" />
      <glyph unicode="5" glyph-name="gid133" horiz-adv-x="536" d="M153-149q-73,0-125.5,31.5T-45-31L65,68q19-36 51-56.5T184-9q25,0 45.5,9T266,25.5T290.5,64t8.5,48q0,33-17,53t-48,20q-24,0-47.5-12T147,139H9q12,28 26,63.5t29.5,75T96,358t31,80t29,73t24,60H516L485,425H265L222,304q6,7 22,12.5t42,5.5q56,0 96.5-23T445,235t22-96q0-62-24-114.5T375.5-67T275-127.5T153-149Z" />
      <glyph unicode="6" glyph-name="gid134" horiz-adv-x="592" d="M235-10q61,0 116.5,23.5t99,63.5T519,169.5T544,281q0,55-24,98.5T453,448T352,473q-25,0-49-6.5t-44-19T222,416q12,51 34,87t52.5,55T374,577q36,0 64.5-18T484,509L596,611q-31,50-79.5,77.5T406,716q-81,0-148-37.5T142.5,574t-75-155.5T41,229Q41,117 91,53.5T235-10Zm29,135q-22,0-39.5,12.5t-27,33.5T188,217q0,26 10.5,50t28,42T266,337t45,10t40.5-11.5t27-31.5t9.5-45q0-26-11-50.5t-28.5-43T309,136t-45-11Z" />
      <glyph unicode="7" glyph-name="gid135" horiz-adv-x="563" d="M335,438H58L89,584H618L135-126H-46L335,438Z" />
      <glyph unicode="8" glyph-name="gid136" horiz-adv-x="587" d="M226-9Q167-9 120.5,14.5T46.5,81T19,181q0,51 20.5,89.5t51,65.5T149,379q-21,15-34,43t-13,60q0,54 26.5,96t69,71.5t90.5,45T379,710q47,0 91.5-19.5t73.5-57T573,540q0-35-15-67t-39-56t-50-38q23-18 41.5-52T529,248q0-56-25-103T436.5,63t-97-53.5T226-9Zm31,145q21,0 40.5,8T333,166.5t25,34t9,42.5q0,22-9.5,38T332,305t-37,8t-40.5-8t-35-21.5t-24.5-33T186,208q0-21 9.5-37.5t26-25.5t35.5-9Zm63,297q14,0 29.5,5.5t28.5,16T399,480t8,35q0,16-7.5,28t-20,19T349,569q-22,0-41.5-10.5T276,530t-12-42q0-18 8-30.5T293,439t27-6Z" />
      <glyph unicode="9" glyph-name="gid137" horiz-adv-x="574" d="M169-155q81,0 147.5,37.5T431.5-13t75,155.5T533,332q0,112-50,175.5T339,571q-61,0-116.5-23.5t-99-63.5t-68-92.5T31,280q0-55 23.5-98.5T121,113T223,88q26,0 49,6.5T315.5,114T353,145q-12-50-34.5-86.5T266,3T201-16q-36,0-65,18T90,52L-22-50q32-50 80.5-77.5T169-155Zm94,369q-23,0-40.5,11.5t-27,31.5T186,302q0,27 10.5,51t29,42.5T266,425t44,11t39.5-12.5t27-33T386,344t-10.5-50t-28-42T308,224t-45-10Z" />
      <glyph unicode=":" glyph-name="gid169" horiz-adv-x="269" d="M81,356l35,163H246L211,356H81ZM6,0L40,163H171L136,0H6Z" />
      <glyph unicode=";" glyph-name="gid180" horiz-adv-x="272" d="M82,356l34,163H247L212,356H82ZM-6-135L54,2H5L40,163H174L139,2L64-135H-6Z" />
      <glyph unicode="&lt;" glyph-name="gid223" horiz-adv-x="552" d="M29,293L451,549V379L261,259L451,146V-33L29,217v76Z" />
      <glyph unicode="=" glyph-name="gid221" horiz-adv-x="488" d="M79,124V226H397V124H79Zm0,202V428H397V326H79Z" />
      <glyph unicode="&gt;" glyph-name="gid222" horiz-adv-x="552" d="M504,217L82-33V146L272,259L82,379V549L504,293V217Z" />
      <glyph unicode="?" glyph-name="gid176" horiz-adv-x="476" d="M92,245q6,31 17,58t32.5,51T200,397q34,17 61,32.5T307.5,460T337,493t10,41q0,26-16.5,41T290,590t-44-12t-35-28.5T185,518L97,590q25,41 61,69.5t78.5,44T324,719q42,0 80-16t62.5-50.5T491,561q0-42-10-73.5T454,432t-40-42t-50-34q-30-18-60.5-32.5T251,291t-28-46H92ZM42,0L74,150H205L173,0H42Z" />
      <glyph unicode="@" glyph-name="gid229" horiz-adv-x="816" d="M582,53q24,0 45,22t37.5,58.5T690,212t9,82q0,54-17,99t-49,78.5t-78,52T450,542q-74,0-140-29T193,432T113,311.5T84,164q0-75 27.5-131T190-54T312-85q37,0 73,9.5T465-47l7-59q-43-19-86.5-29.5T299-146q-84,0-147.5,37.5T53-3T18,156q0,77 24,144t66,122.5t98.5,96T329,581t137,22q69,0 123.5-21t94-59.5t60-92T764,312q0-43-9.5-89T727,134.5T683.5,58T625,4T552-16q-34,0-56,16.5T474,49q0,5 0.5,8.5T476,64q-39-34-77.5-51.5T320-5q-49,0-85.5,24t-56,65.5T159,179q0,57 20.5,108.5T236,379t80.5,63T411,465q48,0 79.5-22T531,385l12,65h75L554,124q-1-7-2.5-16.5T550,91q0-17 8.5-27.5T582,53ZM352,72q28,0 51.5,12t41,33.5T474,167l19,122q-7,39-30,63t-59,24q-27,0-53.5-14.5t-48.5-40t-35.5-59T253,190q0-33 11-59.5T297,88t55-16Z" />
      <glyph unicode="A" glyph-name="gid1" horiz-adv-x="641" d="M337,710H486L578,0H410L395,159H193L112,0H-57L337,710Zm55-438L372,523L242,272H392Z" />
      <glyph unicode="B" glyph-name="gid10" horiz-adv-x="661" d="M155,710H534q40,0 66.5-21t40-54T654,564q0-40-16-79.5t-46.5-71T517,364q44-14 68.5-50.5T610,224q0-57-22.5-99T526,55.5T437,14T333,0H4L155,710ZM363,139q16,0 31.5,7t27,19.5t19,30.5t7.5,38q0,17-6,30.5T426,286t-24,8H230L198,139H363Zm40,284q14,0 28,6t26,17.5T476,475t7,41q0,26-12,40t-31,14H289L258,423H403Z" />
      <glyph unicode="C" glyph-name="gid11" horiz-adv-x="661" d="M300-6Q236-6 186,19T102,87T50.5,184T33,295q0,60 20,119.5T110.5,528t89,96t116,66T453,714q98,0 160-43t81-112L551,472q-7,38-27.5,59T476,560t-55,8q-55,0-96-24t-69-63.5t-42-85T200,308q0-46 15-84t45-61t74-23q27,0 58,10t59,31.5T499,238l118-79q-32-53-85.5-90T417,13T300-6Z" />
      <glyph unicode="D" glyph-name="gid13" horiz-adv-x="693" d="M155,710H409q93,0 153-37t89.5-99T681,434q0-94-32-173T560,123T425.5,32T258,0H4L155,710ZM288,144q50,0 91.5,21.5T450,224t45,85t16,101q0,47-14.5,82T452,546.5T378,566H288L198,144h90Z" />
      <glyph unicode="E" glyph-name="gid15" horiz-adv-x="576" d="M155,710H622L591,566H288L259,428H519L491,295H231L198,144H510L480,0H4L155,710Z" />
      <glyph unicode="F" glyph-name="gid20" horiz-adv-x="552" d="M155,710H613L583,566H288L256,413H498L470,280H227L168,0H4L155,710Z" />
      <glyph unicode="G" glyph-name="gid21" horiz-adv-x="704" d="M291-5Q234-5 187,16T105.5,75.5T52,167.5T33,285q0,88 35,166t95.5,137.5t136,93T458,715q93,0 155.5-42T696,560L555,468q-12,47-48.5,74T421,569q-43,0-83-21t-70.5-58.5t-48-85T202,304q0-47 16-84t46-58t72-21q48,0 96.5,25.5T527,242L493,80q-50-43-99.5-64T291-5ZM520,252H391l25,119H681L602,0H466l54,252Z" />
      <glyph unicode="H" glyph-name="gid22" horiz-adv-x="721" d="M155,710H319L260,435H517l59,275H740L589,0H425l62,291H230L168,0H4L155,710Z" />
      <glyph unicode="I" glyph-name="gid23" horiz-adv-x="300" d="M155,710H319L168,0H4L155,710Z" />
      <glyph unicode="J" glyph-name="gid28" horiz-adv-x="483" d="M92-11Q49-11 15,0T-45,33L18,167q7-7 36-19.5T123,135q33,0 56,12.5T217.5,186T245,252.5T269,349l77,361H511L434,349q-17-81-40.5-147t-60-114t-95-73.5T92-11Z" />
      <glyph unicode="K" glyph-name="gid29" horiz-adv-x="653" d="M155,710H319L254,404L554,710H739L420,393L604,0H416L293,286l-81-77L168,0H4L155,710Z" />
      <glyph unicode="L" glyph-name="gid30" horiz-adv-x="563" d="M155,710H319L198,144H519L489,0H4L155,710Z" />
      <glyph unicode="M" glyph-name="gid31" horiz-adv-x="825" d="M155,710H333l88-371L667,710H845L694,0H529l91,425L417,116H329L259,425L168,0H4L155,710Z" />
      <glyph unicode="N" glyph-name="gid32" horiz-adv-x="729" d="M155,710H283L496,293l88,417H748L597,0H467L254,406L168,0H4L155,710Z" />
      <glyph unicode="O" glyph-name="gid34" horiz-adv-x="733" d="M301-6Q236-6 186,18.5t-84,66t-51.5,95T33,291q0,64 22,126t62,116t93.5,94.5T327,691t130,23q64,0 114-24.5T655,623t51-95t17-111q0-64-22-125.5t-62-115T546,82T430.5,17.5T301-6Zm32,146q52,0 93,24.5t70,64t44,86T555,406q0,43-14,80t-43,59.5T423,568q-51,0-92-24t-70-63t-44.5-85.5T201,304q0-44 14-81t43.5-60T333,140Z" />
      <glyph unicode="P" glyph-name="gid42" horiz-adv-x="602" d="M155,710H444q55,0 94.5-29T599,606.5T620,510T598.5,409T539,318.5t-87.5-65T346,229H216L168,0H4L155,710ZM366,372q15,0 30,9t28,25t20.5,39t7.5,51q0,24-7,39.5t-18.5,23T402,566H288L247,372H366Z" />
      <glyph unicode="Q" glyph-name="gid44" horiz-adv-x="732" d="M300-5Q236-5 186,19.5T101.5,85t-52,94.5T32,291q0,65 22.5,126.5T117,533t93.5,95t116,64T456,715q65,0 114.5-24.5t83.5-67T705,528t17-111q0-64-22-125.5t-61.5-115T545.5,82t-116-64T300-5ZM497,0L311,280H464L652,0H497ZM333,141q52,0 93,24.5T496,229t44,85.5T555,406q0,43-14.5,80.5t-43.5,60T423,569q-52,0-93-24t-70-63.5t-44.5-86T200,304q0-43 14.5-80.5t44-60T333,141Z" />
      <glyph unicode="R" glyph-name="gid45" horiz-adv-x="647" d="M4,0L155,710H460q56,0 95.5-29t60-74.5T636,510q0-37-11-73t-32-69t-49.5-59.5T481,264L572,0H387L309,229H216L168,0H4ZM383,372q14,0 29,9.5t27.5,26t20,38.5t7.5,47q0,22-6.5,38.5T443,557t-24,9H288L247,372H383Z" />
      <glyph unicode="S" glyph-name="gid46" horiz-adv-x="594" d="M244-8Q170-8 97,15.5T-27,80L75,223q3-5 19.5-18.5t45-28t64-25.5T278,140q32,0 51.5,8t28,22.5T366,203q0,23-19.5,37t-51,25T225,289q-47,17-79,38T98,376.5T82,444q0,65 25.5,115.5t69,85t98,53T387,716q48,0 90.5-12T555,674t61-36L516,502q-1,5-15.5,15.5t-38,22.5T410,561t-59,9q-28,0-48-8.5t-30.5-24T262,500q0-19 14.5-31.5t41.5-22T381,424q51-16 89-37.5t59.5-53T551,252q0-71-27-121T453,50.5T354.5,6T244-8Z" />
      <glyph unicode="T" glyph-name="gid47" horiz-adv-x="596" d="M273,566H70l30,144H669L639,566H437L316,0H152L273,566Z" />
      <glyph unicode="U" glyph-name="gid48" horiz-adv-x="717" d="M293-6Q207-6 154.5,26t-76,87T55,236q0,27 3,54.5T67,347l78,363H309L231,347q-4-22-6.5-42T222,266q0-36 10-64t32.5-45T324,140q38,0 68,17.5t52,47T481,271t24,76l77,363H746L669,347q-16-74-47.5-138T543,96.5T433.5,21T293-6Z" />
      <glyph unicode="V" glyph-name="gid53" horiz-adv-x="644" d="M82,710H255l44-504L556,710H728L324,0H187L82,710Z" />
      <glyph unicode="W" glyph-name="gid54" horiz-adv-x="1002" d="M76,710H254l52-522L408,379L368,709H518l18-227L650,709H801L618,379l23-191L914,710h180L674,0H538L492,278L330,0H193L76,710Z" />
      <glyph unicode="X" glyph-name="gid55" horiz-adv-x="625" d="M236,350L81,710H259l89-245L540,710H717L409,350L558,0H381L298,235L116,0H-62L236,350Z" />
      <glyph unicode="Y" glyph-name="gid56" horiz-adv-x="623" d="M213,244L77,710H255l69-326L535,710H713L375,242L324,0H160l53,244Z" />
      <glyph unicode="Z" glyph-name="gid58" horiz-adv-x="595" d="M-10,123L425,566H98l30,144H646L619,587L200,144H529L499,0H-36l26,123Z" />
      <glyph unicode="[" glyph-name="gid186" horiz-adv-x="322" d="M-4-40L162,740H373L346,613H282L171,87h63L208-40H-4Z" />
      <glyph unicode="\" glyph-name="gid166" horiz-adv-x="632" d="M284,710L546,0H370L107,710H284Z" />
      <glyph unicode="]" glyph-name="gid187" horiz-adv-x="323" d="M-30-40L-3,87H62L173,613H109l27,127H347L182-40H-30Z" />
      <glyph unicode="^" glyph-name="gid239" horiz-adv-x="608" d="M46,303L244,710H377L574,303H444L311,578L174,303H46Z" />
      <glyph unicode="_" glyph-name="gid182" horiz-adv-x="441" d="M-44-144L-14,0H326L296-144H-44Z" />
      <glyph unicode="`" glyph-name="gid261" horiz-adv-x="294" d="M149,730H293l22-130L204,584L149,730Z" />
      <glyph unicode="a" glyph-name="gid59" horiz-adv-x="634" d="M197-10q-58,0-99.5,27.5t-64,76T11,203q0,67 23,127T97,435.5T188.5,508T297,535q51,0 87.5-26.5T434,439l18,83H613L539,180q-1-6-1.5-11T537,159q0-23 25-24L534,0q-22-4-39-6T466-8Q427-8 404,7.5T381,59q0,4 0,8t1,9t2,11q-37-49-86.5-73T197-10Zm72,135q15,0 30.5,5.5T330,145t29,23t25,30l23,110q-3,27-15.5,47T360,387t-40,12q-28,0-53-14t-44.5-38t-31-54.5T180,229q0-30 10.5-53.5t30.5-37T269,125Z" />
      <glyph unicode="b" glyph-name="gid67" horiz-adv-x="619" d="M293-10q-57,0-93.5,25.5T148,87L130,0H-10L145,730H305L243,439q32,44 79.5,70T421,535q55,0 93-28t57.5-76T591,323q0-69-24.5-129.5t-67-106T404,16T293-10ZM279,125q28,0 54,13.5t46,36t32,53T423,291q0,31-10,55t-27.5,38.5T342,399q-22,0-45.5-12T252,354.5T216,308L192,198q6-23 18-39t29.5-25t39.5-9Z" />
      <glyph unicode="c" glyph-name="gid68" horiz-adv-x="548" d="M231-10q-74,0-123,30.5T35,101T11,211q0,62 24,119.5T103,434t105.5,73.5T345,535q87,0 138.5-38.5T552,396L387,349q-9,24-27,37t-44,13q-27,0-52-12.5T219.5,351t-31-54T177,229q0-31 10-54.5T215.5,138T257,125q18,0 35.5,6.5T325,150t25,27l146-48q-28-40-68-71.5T338,8T231-10Z" />
      <glyph unicode="d" glyph-name="gid70" horiz-adv-x="634" d="M197-10q-58,0-99.5,27.5t-64,76T11,203q0,67 23,127T97,435.5T188.5,508T297,535q51,0 87.5-26.5T434,439l62,291H657L539,180q-1-6-1.5-11T537,159q0-23 25-24L534,0q-22-4-39-6T466-8Q427-8 403.5,7T380,56q0,4 0.5,8.5t1.5,10T384,87q-37-49-86.5-73T197-10Zm72,135q15,0 30.5,5.5T330,145t29,23t25,30l23,110q-3,27-15.5,47T360,387t-40,12q-28,0-53-14t-44.5-38t-31-54.5T180,229q0-30 10.5-53.5t30.5-37T269,125Z" />
      <glyph unicode="e" glyph-name="gid72" horiz-adv-x="558" d="M232-10q-68,0-117.5,28t-76,78.5T12,212q0,67 26,125t72,102.5t107.5,70T350,535q60,0 103.5-17.5t67-51T544,385q0-85-78.5-129.5T232,211q-30,0-65.5,1.5T93,218l20,98q32-3 61-4.5t58-1.5q59,0 93.5,6.5T375,337t15,34q0,16-8.5,26.5t-23,16.5T324,420q-33,0-61-17t-48.5-47t-32-68.5T171,205q0-31 9-53.5T209.5,117T261,105q36,0 66.5,17T377,169l126-40q-27-41-71-72.5t-95.5-49T232-10Z" />
      <glyph unicode="f" glyph-name="gid77" horiz-adv-x="376" d="M98,361H35L61,482h63l9,43q14,66 46.5,114T257,713.5T356,740q31,0 62.5-8T482,709L427,589q-13,7-31,11.5T363,605q-26,0-43.5-18.5T294,531l-11-49H398L372,361H258L136-213H-24L98,361Z" />
      <glyph unicode="g" glyph-name="gid78" horiz-adv-x="618" d="M160-223q-80,0-132.5,27.5T-57-118L47-31q20-33 56.5-52.5T185-103q36,0 69.5,14T313-44t35,80l10,51q-31-43-78.5-66T183-2Q129-2 90.5,25.5T32,100T12,205q0,67 24,126.5t65.5,105t95,72T310,535q56,0 92.5-25.5T454,439l19,86H612L508,36q-16-80-66-138T319.5-191.5T160-223ZM267,125q16,0 32,5.5t31,15t28,23T382,198l24,110q-4,28-17,48.5T358,388t-40,11q-28,0-52.5-14.5t-44.5-39T190,291t-11-62q0-29 10.5-53T220,138.5T267,125Z" />
      <glyph unicode="h" glyph-name="gid79" horiz-adv-x="591" d="M145,730H305L243,437q37,47 87,72.5T435,535q48,0 74.5-16.5t37.5-44T558,414q0-19-2.5-39T549,336L478,0H318l63,295q2,11 3,20.5t1,18.5q0,31-14,45.5T333,394q-16,0-38.5-11.5t-44-32.5T214,301L150,0H-10L145,730Z" />
      <glyph unicode="i" glyph-name="gid80" horiz-adv-x="268" d="M102,525H262L150,0H-10L102,525Zm43,205H305L274,585H114l31,145Z" />
      <glyph unicode="j" glyph-name="gid87" horiz-adv-x="273" d="M-75-202q-38,0-70.5,12.5T-200-152l90,109q6-11 18.5-16T-66-64q14,0 26,6.5T-19.5-38T-7-9L106,525H266L156,3q-13-60-47.5-106.5T26.5-176T-75-202ZM150,730H310L279,585H119l31,145Z" />
      <glyph unicode="k" glyph-name="gid89" horiz-adv-x="570" d="M237,227q79,15 123,49t44,74q0,22-12.5,33.5T360,395q-32,0-66.5-26t-63-69.5T189,206l27,159q28,51 61.5,88.5T351,511t85,20q55,0 83.5-31.5T548,413q0-67-36.5-122.5T406,198L495,0H325L237,227ZM145,730H304L149,0H-10L145,730Z" />
      <glyph unicode="l" glyph-name="gid90" horiz-adv-x="326" d="M126-9Q70-9 40.5,16.5T11,89q0,10 1,20.5T16,131L143,730H303L187,187q-1-5-1.5-10.5T185,166q0-39 38-39q11,0 25.5,3.5T276,141L271,21Q239,7 199-1T126-9Z" />
      <glyph unicode="m" glyph-name="gid91" horiz-adv-x="897" d="M102,525H246l-19-88q37,47 90.5,72.5T428,535q43,0 68.5-13.5T534,485t13-52q27,33 58.5,55t68,34.5T747,535q47,0 72.5-16.5T855,475t10-60q0-12-2-31.5T855,336L783,0H623l63,295q5,24 5,42q0,29-12.5,43T647,394t-41-12t-41.5-33.5T530,301L467,0H307l63,295q3,12 4,22.5t1,19.5q0,29-12,43t-33,14q-28,0-61.5-26.5T214,301L150,0H-10L102,525Z" />
      <glyph unicode="n" glyph-name="gid92" horiz-adv-x="591" d="M102,525H246l-19-88q25,31 58,53t72.5,33.5T440,535q47,0 72-17t35.5-44.5T558,414q0-20-3-39.5T549,336L478,0H318l63,295q2,12 3,21.5t1,18.5q0,31-13.5,45T337,394q-19,0-42-12t-44.5-33T214,301L150,0H-10L102,525Z" />
      <glyph unicode="o" glyph-name="gid94" horiz-adv-x="591" d="M237-10q-79,0-129,30.5t-73.5,81T11,213q0,64 23.5,122T101,438t102.5,71T337,535q80,0 129.5-30t73-80.5T563,312q0-63-23.5-121T473,87.5T370.5,16T237-10Zm23,135q27,0 51.5,12.5T355,173t30,54t11,66q0,33-9.5,56.5T359,386t-45,13q-26,0-50.5-12.5t-44-35.5T189,297t-11-67q0-31 9.5-55t28-37T260,125Z" />
      <glyph unicode="p" glyph-name="gid102" horiz-adv-x="618" d="M101,525H241l-19-85q37,45 83.5,70T408,535q57,0 97.5-28.5T568,430t22-109q0-66-23-125.5t-62-106t-90-73T309-10T217.5,15.5T168,85L104-213H-56L101,525ZM283,125q27,0 52,14.5T380,178t31.5,54.5T423,295q0,30-11,53.5t-31,37T333,399q-14,0-29.5-5T273,379.5T244.5,357T219,327L196,219q5-27 16.5-48t30-33.5T283,125Z" />
      <glyph unicode="q" glyph-name="gid104" horiz-adv-x="618" d="M358,85q-33-46-80-70.5T176-10q-51,0-88,27.5T31,93T11,201q0,69 24.5,129.5t67,106t95.5,72T309,535q57,0 92.5-26T454,439l18,86H612L455-214H295L358,85Zm-91,40q21,0 40.5,9T346,159t36,37l24,111q-3,26-15,47t-30.5,33T319,399q-27,0-52-14t-45-38t-32-54.5T178,229q0-30 10.5-53.5t30.5-37T267,125Z" />
      <glyph unicode="r" glyph-name="gid105" horiz-adv-x="392" d="M102,525H249L226,419q38,53 84.5,83T402,532q11,0 15.5,0t7.5-1L395,388q-54,0-102-18.5T217,315L150,0H-10L102,525Z" />
      <glyph unicode="s" glyph-name="gid106" horiz-adv-x="482" d="M188-10Q124-10 66.5,11.5T-26,74l77,98q39-33 78.5-50.5T207,104q22,0 36.5,6T265,127t7,26q0,18-17,29.5T198,206q-55,18-89,34.5T58.5,279T42,333q0,58 32.5,103T162,508t122,27q57,0 102.5-16T470,461l-82-96q-36,31-65,44.5T264,423q-20,0-35-6t-23-17t-8-27q0-18 16-28t57-22q57-16 92.5-35T416,245t17-59q0-57-30.5-101.5T317,15T188-10Z" />
      <glyph unicode="t" glyph-name="gid108" horiz-adv-x="392" d="M46,89q0,10 1,20t3,21l58,274H45L72,525h62l36,167H330L294,525H395L369,404H268L222,185q-1-4-1.5-8.5T220,168q0-17 9.5-24.5T254,136q11,0 23,3t24.5,7t23.5,9l2-127Q303,18 275.5,9t-56-14T163-10q-50,0-83.5,23T46,89Z" />
      <glyph unicode="u" glyph-name="gid109" horiz-adv-x="606" d="M139-10Q16-10 16,116q0,17 2.5,34.5T25,189L97,525H256L192,224q-5-22-5-39q0-60 50-60q19,0 38,7.5T315,157t41,44l69,324H585L512,180q-1-6-2-11t-1-10q0-23 26-24L506,0q-22-4-39-6T438-8Q399-8 375.5,7T352,56q0,4 1,8.5T355,76t2,15Q312,39 256.5,14.5T139-10Z" />
      <glyph unicode="v" glyph-name="gid114" horiz-adv-x="536" d="M47,525H213l17-397q33,56 59.5,104T337,326.5t40,95T413,525H558Q522,395 449,263T275,0H109L47,525Z" />
      <glyph unicode="w" glyph-name="gid115" horiz-adv-x="802" d="M38,525H192l51-380q19,32 36.5,64T314,273L266,525H399l18-159q19,40 37,80t35,79H612q-27-71-57-131T484,274l17-93q32,42 56,76.5t43,65t34.5,61t31,64.5T698,525H843Q794,395 709.5,263T510,0H405L380,184q-25-46-52-92T274,0H136L38,525Z" />
      <glyph unicode="x" glyph-name="gid116" horiz-adv-x="522" d="M166,262L52,525H214l54-148l5-19l12,19L405,525H566L339,262L458,0H295L237,147l-5,19l-12-19L100,0H-64L166,262Z" />
      <glyph unicode="y" glyph-name="gid117" horiz-adv-x="531" d="M-50-111q39,2 64.5,7.5T58-84.5T94-48l29,37L45,525H208l29-388l34,56q25,41 45.5,81T353,354.5t28.5,83T404,525H558q-13-48-29-91t-38-89T435.5,241T352,103L272-26q-36-57-70-96t-69.5-63T57-220t-88-11L-50-111Z" />
      <glyph unicode="z" glyph-name="gid120" horiz-adv-x="471" d="M-19,96L293,414H61L85,525H486l-21-96L153,111H405L381,0H-40l21,96Z" />
      <glyph unicode="{" glyph-name="gid184" horiz-adv-x="332" d="M301,613L263,432q-5-23-19.5-40.5T211,360q9-11 16-24.5t7-30.5q0-4-0.5-8.5T232,288L192,96h52L217-31H43q-5,0-11,4T26-11q0,2 0,4.5T27-1L77,234q1,5 1.5,8.5T79,250q0,23-12,37.5T39,306L62,416q14,0 28.5,11t26,27T131,486l47,224q4,18 14,24t15,6H381L353,613H301Z" />
      <glyph unicode="|" glyph-name="gid237" horiz-adv-x="342" d="M108-130V775H243V-130H108Z" />
      <glyph unicode="}" glyph-name="gid185" horiz-adv-x="335" d="M115,613l27,127H315q5,0 11-4.5t6-15.5q0-6-1-10L283,486q-1-4-1.5-7t-0.5-7q0-21 12-38.5T322,416L298,306q-20-4-41-23.5T230,234L180-1q-4-18-13.5-24T151-31H-22L5,96H57L98,288q5,23 20,41t31,31q-8,11-15,24t-7,30q0,5 0.5,9.5T129,432l39,181H115Z" />
      <glyph unicode="~" glyph-name="gid225" horiz-adv-x="565" d="M37,222q1,10 9,34t27,49t48.5,43.5T194,367q39,0 67-13t54-26.5T371,314q28,0 44,12t21.5,24.5T442,365h86q-1-6-9.5-28.5t-27.5-49t-49.5-46T366,222q-36,0-65,12.5T246,260t-56,13q-29,0-43-12.5t-18.5-25T124,222H37Z" />
      <glyph unicode="&#xa0;" glyph-name="gid206" horiz-adv-x="230" />
      <glyph unicode="&#xa1;" glyph-name="gid173" horiz-adv-x="309" d="M262,429L169-6H9l93,435H262Zm59,282L286,545H126l35,166H321Z" />
      <glyph unicode="&#xa2;" glyph-name="gid210" horiz-adv-x="584" d="M178-120L202-9q-55,5-94.5,37T47,109.5T26,212q0,55 19.5,107t57,96.5t91,75.5T317,533l24,112h69L386,533q63-2 113-36t70-101L403,349q-5,19-18,31t-28,14L300,129q14,5 26.5,11t23,16T367,177l146-48q-30-46-75-77T347.5,5.5T271-10L247-120H178Zm14,345q0-19 5-36.5t13.5-31T233,137l53,250q-20-7-37-24t-30-39.5t-20-48T192,225Z" />
      <glyph unicode="&#xa3;" glyph-name="gid214" horiz-adv-x="544" d="M75,384H456L430,265H51L75,384ZM7,105q30,21 54.5,45T104,201t28,55.5T142,315q0,31-6,62.5T124,440t-6,60q0,46 20.5,84.5t56,68t80.5,46T368,715q61,0 110.5-27.5T556,610L454,512q-17,31-49.5,52.5T340,586q-23,0-41.5-11.5t-29.5-31T258,498q0-23 6-49.5T276,393t6-63q0-27-5.5-52T258,228.5t-35-50T169,123q25,7 43,10.5t34,3.5q21,0 41-4t40-8t41-4q16,0 31.5,3.5T435,135L449,17Q424,3 391.5-6T331-15q-29,0-58.5,8t-59,15.5T152,16q-26,0-63-7T16-9L7,105Z" />
      <glyph unicode="&#xa4;" glyph-name="gid211" horiz-adv-x="580" d="M194,501q22,13 48.5,19.5T299,527t56-6.5T402,502l69,70l62-62l-66-66q15-22 23-49.5t8-56.5q0-30-8-57.5T466,230l67-66l-57-57l-72,67q-21-11-47.5-18T299,149t-58,7t-49,19l-72-68L63,164l67,68q-30,47-30,106q0,28 7.5,55T129,442L63,510l62,62l69-71Zm21-164q0-27 11.5-47.5t30.5-32T299,246q25,0 43.5,11.5T372,290t11,48q0,28-11,48.5T342.5,418T299,429q-23,0-42-11t-30.5-32T215,337Z" />
      <glyph unicode="&#xa5;" glyph-name="gid215" horiz-adv-x="700" d="M540,416h64L582,313H465l-51-71l-7-31H561L540,108H385L362,0H199l22,108H69L91,211H244l7,33l-20,69H113l22,103h66L115,710H293l69-326L572,710H751L540,416Z" />
      <glyph unicode="&#xa6;" glyph-name="gid238" horiz-adv-x="334" d="M240,260V-130H104V260H240Zm0,515V385H104V775H240Z" />
      <glyph unicode="&#xa7;" glyph-name="gid232" horiz-adv-x="524" d="M438,223q12-19 12-60q0-69-27.5-117t-70-77.5T263-74.5T178-88q-53,0-92,19.5T22.5-23T-12,21l123,98q20-30 43-42.5T203,64q14,0 27.5,4t24,12T271,99.5t6,25.5q0,13-6.5,20t-17,9.5T233,157q-85,7-126.5,47.5T65,306q0,31 6.5,51.5t15,33.5T98,411q-5,9-10,29t-5,46q0,44 20.5,84.5T160,644t81.5,52T337,715q45,0 76.5-13.5t53-34.5T502,622.5T524,581L389,523q-4,15-13.5,26.5t-24,17.5T318,573q-15,0-28-4t-22.5-12.5t-15-20T247,510q0-22 14.5-28.5T295,474q42-2 83.5-15.5t69-43.5T475,332q0-25-7-47.5T452.5,246T438,223ZM218,308q0-14 6-22t15.5-11.5t20.5-5t21-3t17-4.5q9,7 15,20t6,24q0,15-7,23.5T295,342t-21,4q-12,0-22.5,2.5T238,353q-7-7-13.5-19T218,308Z" />
      <glyph unicode="&#xa8;" glyph-name="gid260" horiz-adv-x="437" d="M120,593l28,129H279L252,593H120Zm205,0l28,129H483L457,593H325Z" />
      <glyph unicode="&#xa9;" glyph-name="gid233" horiz-adv-x="858" d="M437-7Q356-7 287,20T167,96T87.5,211T59,355q0,77 28.5,143T167,612.5T287,688t150,27q83,0 153.5-27T713,612.5T794,498t29-143q0-78-29-144T713,96T590.5,20T437-7Zm0,56q68,0 127,22.5t103,63T736,231t25,123q0,64-24.5,119.5t-68,97T566,635.5T437,659q-67,0-125-23.5t-101-65T144.5,474T121,355t23.5-119.5T211,138T311.5,72.5T437,49Zm9,65q-60,0-108.5,18.5t-82,52t-51.5,77T186,354q0,47 16.5,90.5t49,77.5T333,575.5T445,595q85,0 144.5-37T678,460L523,412q-9,18-21.5,28t-27,15T444,460q-21,0-38-8t-30-22t-19.5-33.5T350,354q0-25 8-44.5t21.5-33T410,256t35-7q16,0 31,6t28,16.5T524,297l156-47q-17-37-50-68t-79-49.5T446,114Z" />
      <glyph unicode="&#xaa;" glyph-name="gid126" horiz-adv-x="429" d="M158,336q-42,0-67.5,27T65,430q0,42 22.5,74.5t62,51T235,574q21,0 38.5-4T303,559l3,15q1,6 1.5,11t0.5,9q0,21-12,31.5T258,636q-27,0-54-10t-58-30l-18,71q76,47 157,47q65,0 99.5-27.5T419,604q0-10-1.5-21T414,561l-18-89q-1-3-1.5-6.5T394,459q0-18 22-19l-21-97q-14-3-27.5-4.5T344,337q-30,0-44,11.5T286,383q0,4 0,8t1,10q-29-31-62-48t-67-17Zm51,83q14,0 30,7t28.5,17.5T283,466l7,33q-10,6-23.5,9T242,511q-28,0-48.5-16.5T173,454q0-15 10-25t26-10Z" />
      <glyph unicode="&#xab;" glyph-name="gid194" horiz-adv-x="659" d="M32,293L331,486L304,357L150,259l113-91L236,39L15,217l17,76Zm311,0L642,486L615,357L462,259l113-91L548,39L327,217l16,76Z" />
      <glyph unicode="&#xac;" glyph-name="gid226" horiz-adv-x="602" d="M564,415L497,98H362l37,173H46L76,415H564Z" />
      <glyph unicode="&#xad;" glyph-name="gid193" horiz-adv-x="595" d="M32,203L63,347H551L520,203H32Z" />
      <glyph unicode="&#xae;" glyph-name="gid234" horiz-adv-x="858" d="M439-7Q356-7 287,20T167,96T87.5,211T59,355q0,77 28.5,143T167,612.5T287,688t152,27q82,0 152-27t121.5-75.5t81-114.5T823,355q0-78-29.5-144t-81-115T591,20T439-7Zm0,55q90,0 162.5,39.5T716,195.5T758,353q0,64-24,119.5T667.5,570t-101,65.5T439,659T312.5,635.5t-100-65t-65.5-97T124,354t23-119.5T212.5,137t100-65.5T439,48ZM273,574H470q41,0 73.5-22T594,496t18-70q0-26-9-50t-25-43.5T540,301L640,140H515L428,280H385V140H273V574ZM459,376q18,0 30.5,12T502,426q0,27-14,38.5T457,476H385V376h74Z" />
      <glyph unicode="&#xaf;" glyph-name="gid262" horiz-adv-x="391" d="M126,620l20,97H437l-20-97H126Z" />
      <glyph unicode="&#xb0;" glyph-name="gid236" horiz-adv-x="285" d="M183,504q-39,0-62.5,23T97,588q0,35 17.5,66t48,50.5T231,724q40,0 63-24.5T317,637q0-37-18-67.5t-48-48T183,504Zm17,75q14,0 27,13t13,29q0,14-8,20.5T214,648q-14,0-27.5-12T173,608q0-12 7-20.5t20-8.5Z" />
      <glyph unicode="&#xb1;" glyph-name="gid224" horiz-adv-x="525" d="M68,16V143H434V16H68ZM435,445V318H324V197H180V318H69V445H180V566H324V445H435Z" />
      <glyph unicode="&#xb2;" glyph-name="gid159" horiz-adv-x="414" d="M44,383q13,53 31,88.5t50,61T209,581q25,11 50,20.5T305.5,623T340,650.5T353,687q0,22-15,34.5T295,734q-25,0-48.5-8.5t-43-20.5T170,680l-42,69q16,16 45.5,32.5t68,26.5T322,818q67,0 101.5-29T458,710q0-38-13.5-66t-36-48.5t-49-33.5T307,541q-25-8-44-18t-31-21.5T217,474H409l-21-91H44Z" />
      <glyph unicode="&#xb3;" glyph-name="gid160" horiz-adv-x="399" d="M201,377q-54,0-94.5,18.5T58,452l61,61q13-19 35-33.5T216,465q23,0 43,6.5t32,19T303,523q0,21-21.5,31.5T209,565H186l18,82h22q59,0 81,13t22,38q0,22-17.5,29.5T277,735q-36,0-64-13.5T165,690l-39,70q20,20 49.5,32t64,19t64.5,7q63,0 98.5-28.5T438,716q0-40-26.5-68T342,611q30-5 45.5-30.5T403,521q0-51-29.5-82.5T298,392t-97-15Z" />
      <glyph unicode="&#xb4;" glyph-name="gid257" horiz-adv-x="293" d="M228,586L122,600l76,130H343L228,586Z" />
      <glyph unicode="&#xb5;" glyph-name="gid227" horiz-adv-x="650" d="M113,525H273L209,224q-2-11-3.5-21.5T204,184q0-59 53-59q16,0 35,7.5T332,157t41,44l68,324H601L528,180q-1-5-1.5-9.5T526,161q0-25 33-26L530,0q-24-4-42.5-6T455-8Q413-8 392,8T371,56q0,6 0.5,14T374,91q-11-19-37-43T279.5,7T218-10q-28,0-42.5,13.5T159,38L116-213H-44L113,525Z" />
      <glyph unicode="&#xb6;" glyph-name="gid231" horiz-adv-x="657" d="M61,387q0,99 40.5,171t115,112T393,710H700L675,591H608L465-80H330l59,279H353L294-80H158l60,279q-74,0-115.5,52T61,387Zm134,12q0-23 6-41t17-28t25-13l59,274q-28-2-52.5-30.5t-39.5-71T195,399ZM474,591H436L378,317h37l59,274Z" />
      <glyph unicode="&#xb7;" glyph-name="gid167" horiz-adv-x="238" d="M40,240L75,406H206L171,240H40Z" />
      <glyph unicode="&#xb8;" glyph-name="gid258" horiz-adv-x="315" d="M57-210q-25,0-50.5,8T-43-178L13-95q8-10 19-15t21-5q20,0 34.5,14T102-63q0,17-6,32.5T79,0l57,32q21-23 37-50.5T189-82q0-33-15.5-62.5T129-192T57-210Z" />
      <glyph unicode="&#xb9;" glyph-name="gid158" horiz-adv-x="299" d="M315,476l-20-92H64l20,92h73l51,243q-8-9-26.5-21.5T143,676t-35-9l20,93q15,0 32,8.5T192.5,788t26,20T229,818h94L250,476h65Z" />
      <glyph unicode="&#xba;" glyph-name="gid127" horiz-adv-x="426" d="M219,336q-48,0-80,20.5t-48,55T75,486q0,44 16,84.5t45.5,73t71,51.5T300,714q49,0 81-20.5T428.5,639T444,564q0-42-15.5-83T383,407t-71-52t-93-19Zm21,97q23,0 43.5,15.5t32.5,42T328,549q0,31-13,49.5T279,617t-43.5-15.5t-32.5-42T191,500q0-29 13.5-48T240,433Z" />
      <glyph unicode="&#xbb;" glyph-name="gid195" horiz-adv-x="659" d="M607,217L311,39l27,129l152,91L378,357l28,129L623,293l-16-76Zm-311,0L0,39L27,168l152,91L67,357L94,486L312,293l-16-76Z" />
      <glyph unicode="&#xbc;" glyph-name="gid163" horiz-adv-x="897" d="M297,389l-19-92H46l20,92h73l52,243q-9-9-27-21.5T126,589t-36-9l20,93q15,0 32,8.5T174.5,701t26,20T211,731h95L232,389h65ZM67,56L404,380L718,719l58-64L449,339L124-9L67,56ZM644,1l22,95H479l20,84L777,431h70L788,172h49L820,96H771L750,1H644ZM582,172H686l29,132L582,172Z" />
      <glyph unicode="&#xbd;" glyph-name="gid162" horiz-adv-x="923" d="M489-1q13,62 39.5,101T590,163t74,41q23,10 45.5,19t40,20T777,268.5T787,304t-14.5,33.5T732,350q-24,0-46.5-8.5T644,321t-33-25l-40,69q15,17 43.5,33T680,424t78,10q64,0 97.5-29T889,326q0-38-12-66t-32.5-47t-46-32.5T747,157q-27-10-47-21t-33.5-22T645,91H841L821-1H489ZM297,389l-19-92H46l20,92h73l52,243q-9-9-27-21.5T126,589t-36-9l20,93q15,0 32,8.5T174.5,701t26,20T211,731h95L232,389h65ZM67,56L405,380L718,719l58-64L449,339L125-9L67,56Z" />
      <glyph unicode="&#xbe;" glyph-name="gid164" horiz-adv-x="995" d="M186,289q-36,0-67,8.5T68,323T42,365l61,61q13-20 35.5-34T200,378q23,0 43,6t32.5,19T288,436q0,21-22,31.5T193,478H171l17,82h22q59,0 81.5,12.5T314,611q0,21-17.5,29T262,648q-36,0-64.5-13.5T149,602l-39,71q20,19 50,31.5T224,724t64,7q63,0 98.5-28.5T422,629q0-40-26-68t-70-37q30-6 46-31t16-59q0-51-30-83t-76-47t-96-15ZM166,56L503,380L817,719l58-64L548,339L223-9L166,56ZM742,1l22,95H577l20,84L875,431h70L886,172h49L918,96H869L848,1H742ZM680,172H784l29,132L680,172Z" />
      <glyph unicode="&#xbf;" glyph-name="gid177" horiz-adv-x="470" d="M362,261q-7-30-17.5-57.5t-32-51T253,109q-34-17-61-32.5T145.5,46T116,13T106-28q0-26 16.5-41T163-84t44,12t35.5,29T268-12l88-72q-25-40-61-69t-78.5-44.5T129-213q-41,0-79.5,16t-63,51T-38-55q0,43 10,74T-1,74t40,42t50,34q30,18 60.5,32.5t53,32.5T230,261H362Zm49,245L379,356H248l32,150H411Z" />
      <glyph unicode="&#xc0;" glyph-name="gid6" horiz-adv-x="641" d="M337,710H486L578,0H410L395,159H193L112,0H-57L337,710Zm55-438L372,523L242,272H392ZM311,915H455l22-130L366,769L311,915Z" />
      <glyph unicode="&#xc1;" glyph-name="gid2" horiz-adv-x="641" d="M337,710H486L578,0H410L395,159H193L112,0H-57L337,710Zm55-438L372,523L242,272H392Zm70,502L356,788l76,130H577L462,774Z" />
      <glyph unicode="&#xc2;" glyph-name="gid4" horiz-adv-x="641" d="M337,710H486L578,0H410L395,159H193L112,0H-57L337,710Zm55-438L372,523L242,272H392ZM272,807L400,915H515l82-108l-90-36l-67,63l-94-63l-74,36Z" />
      <glyph unicode="&#xc3;" glyph-name="gid8" horiz-adv-x="641" d="M337,710H486L578,0H410L395,159H193L112,0H-57L337,710Zm55-438L372,523L242,272H392Zm99,501q-29,0-47,11.5t-33.5,23T374,819t-33-11t-16.5-23T320,771H233q3,11 14.5,34.5t31.5,48t47.5,42T387,913q23,0 38-7t26.5-17T475,872t29-7q22,0 35,11.5T558,901t6,14h85q-2-8-13.5-30.5t-32-48t-49-44.5T491,773Z" />
      <glyph unicode="&#xc4;" glyph-name="gid5" horiz-adv-x="641" d="M337,710H486L578,0H410L395,159H193L112,0H-57L337,710Zm55-438L372,523L242,272H392ZM259,778l28,129H418L391,778H259Zm205,0l28,129H622L596,778H464Z" />
      <glyph unicode="&#xc5;" glyph-name="gid7" horiz-adv-x="641" d="M337,710H486L578,0H410L395,159H193L112,0H-57L337,710Zm55-438L372,523L242,272H392ZM333,817q0,47 35,72.5T457,915q42,0 65-17t23-49q0-46-34-71.5T422,752q-41,0-65,17t-24,48Zm114,51q-19,0-32.5-11T401,828q0-13 8.5-21t22.5-8q18,0 32.5,12T479,840q0,12-9,20t-23,8Z" />
      <glyph unicode="&#xc6;" glyph-name="gid9" horiz-adv-x="932" d="M484,710H978L947,566H660L632,433H867L837,290H602L571,144H865L835,0H377l34,159H210L94,0H-80L484,710ZM429,303l47,224L310,303H429Z" />
      <glyph unicode="&#xc7;" glyph-name="gid12" horiz-adv-x="661" d="M300-6Q236-6 186,19T102,87T50.5,184T33,295q0,60 20,119.5T110.5,528t89,96t116,66T453,714q98,0 160-43t81-112L551,472q-7,38-27.5,59T476,560t-55,8q-55,0-96-24t-69-63.5t-42-85T200,308q0-46 15-84t45-61t74-23q27,0 58,10t59,31.5T499,238l118-79q-32-53-85.5-90T417,13T300-6ZM213-210q-25,0-50.5,8T113-178l56,83q8-10 19-15t21-5q20,0 34.5,14T258-63q0,17-6,32.5T235,0l57,32q21-23 37-50.5T345-82q0-33-15.5-62.5T285-192t-72-18Z" />
      <glyph unicode="&#xc8;" glyph-name="gid19" horiz-adv-x="576" d="M155,710H622L591,566H288L259,428H519L491,295H231L198,144H510L480,0H4L155,710ZM292,915H436l22-130L347,769L292,915Z" />
      <glyph unicode="&#xc9;" glyph-name="gid16" horiz-adv-x="576" d="M155,710H622L591,566H288L259,428H519L491,295H231L198,144H510L480,0H4L155,710Zm276,64L325,788l76,130H546L431,774Z" />
      <glyph unicode="&#xca;" glyph-name="gid17" horiz-adv-x="576" d="M155,710H622L591,566H288L259,428H519L491,295H231L198,144H510L480,0H4L155,710Zm88,97L371,915H486l82-108l-90-36l-67,63l-94-63l-74,36Z" />
      <glyph unicode="&#xcb;" glyph-name="gid18" horiz-adv-x="576" d="M155,710H622L591,566H288L259,428H519L491,295H231L198,144H510L480,0H4L155,710Zm75,68l28,129H389L362,778H230Zm205,0l28,129H593L567,778H435Z" />
      <glyph unicode="&#xcc;" glyph-name="gid27" horiz-adv-x="300" d="M155,710H319L168,0H4L155,710Zm-9,205H290l22-130L201,769L146,915Z" />
      <glyph unicode="&#xcd;" glyph-name="gid24" horiz-adv-x="300" d="M155,710H319L168,0H4L155,710Zm126,64L175,788l76,130H396L281,774Z" />
      <glyph unicode="&#xce;" glyph-name="gid25" horiz-adv-x="300" d="M155,710H319L168,0H4L155,710Zm-53,97L230,915H345l82-108l-90-36l-67,63l-94-63l-74,36Z" />
      <glyph unicode="&#xcf;" glyph-name="gid26" horiz-adv-x="300" d="M155,710H319L168,0H4L155,710ZM86,778l28,129H245L218,778H86Zm205,0l28,129H449L423,778H291Z" />
      <glyph unicode="&#xd0;" glyph-name="gid14" horiz-adv-x="697" d="M57,416H379L353,298H32L57,416ZM159,710H413q93,0 153-37t89.5-99T685,434q0-94-32-173T564,123T429.5,32T262,0H8L159,710ZM292,144q51,0 92,21.5T454.5,224T500,309t16,101q0,47-15,82t-45,54.5T383,566H293L202,144h90Z" />
      <glyph unicode="&#xd1;" glyph-name="gid33" horiz-adv-x="729" d="M155,710H283L496,293l88,417H748L597,0H467L254,406L168,0H4L155,710Zm379,61q-29,0-47,11.5t-33.5,23T417,817t-33-11t-16.5-23T363,769H276q3,11 14.5,34.5t31.5,48t47.5,42T430,911q23,0 38-7t26.5-17T518,870t29-7q22,0 35,11.5T601,899t6,14h85q-2-8-13.5-30.5t-32-48t-49-44.5T534,771Z" />
      <glyph unicode="&#xd2;" glyph-name="gid38" horiz-adv-x="733" d="M301-6Q236-6 186,18.5t-84,66t-51.5,95T33,291q0,64 22,126t62,116t93.5,94.5T327,691t130,23q64,0 114-24.5T655,623t51-95t17-111q0-64-22-125.5t-62-115T546,82T430.5,17.5T301-6Zm32,146q52,0 93,24.5t70,64t44,86T555,406q0,43-14,80t-43,59.5T423,568q-51,0-92-24t-70-63t-44.5-85.5T201,304q0-44 14-81t43.5-60T333,140Zm26,773H503l22-130L414,767L359,913Z" />
      <glyph unicode="&#xd3;" glyph-name="gid35" horiz-adv-x="733" d="M301-6Q236-6 186,18.5t-84,66t-51.5,95T33,291q0,64 22,126t62,116t93.5,94.5T327,691t130,23q64,0 114-24.5T655,623t51-95t17-111q0-64-22-125.5t-62-115T546,82T430.5,17.5T301-6Zm32,146q52,0 93,24.5t70,64t44,86T555,406q0,43-14,80t-43,59.5T423,568q-51,0-92-24t-70-63t-44.5-85.5T201,304q0-44 14-81t43.5-60T333,140ZM514,772L408,786l76,130H629L514,772Z" />
      <glyph unicode="&#xd4;" glyph-name="gid36" horiz-adv-x="733" d="M301-6Q236-6 186,18.5t-84,66t-51.5,95T33,291q0,64 22,126t62,116t93.5,94.5T327,691t130,23q64,0 114-24.5T655,623t51-95t17-111q0-64-22-125.5t-62-115T546,82T430.5,17.5T301-6Zm32,146q52,0 93,24.5t70,64t44,86T555,406q0,43-14,80t-43,59.5T423,568q-51,0-92-24t-70-63t-44.5-85.5T201,304q0-44 14-81t43.5-60T333,140ZM315,805L443,913H558l82-108l-90-36l-67,63l-94-63l-74,36Z" />
      <glyph unicode="&#xd5;" glyph-name="gid40" horiz-adv-x="733" d="M301-6Q236-6 186,18.5t-84,66t-51.5,95T33,291q0,64 22,126t62,116t93.5,94.5T327,691t130,23q64,0 114-24.5T655,623t51-95t17-111q0-64-22-125.5t-62-115T546,82T430.5,17.5T301-6Zm32,146q52,0 93,24.5t70,64t44,86T555,406q0,43-14,80t-43,59.5T423,568q-51,0-92-24t-70-63t-44.5-85.5T201,304q0-44 14-81t43.5-60T333,140ZM534,771q-29,0-47,11.5t-33.5,23T417,817t-33-11t-16.5-23T363,769H276q3,11 14.5,34.5t31.5,48t47.5,42T430,911q23,0 38-7t26.5-17T518,870t29-7q22,0 35,11.5T601,899t6,14h85q-2-8-13.5-30.5t-32-48t-49-44.5T534,771Z" />
      <glyph unicode="&#xd6;" glyph-name="gid37" horiz-adv-x="733" d="M301-6Q236-6 186,18.5t-84,66t-51.5,95T33,291q0,64 22,126t62,116t93.5,94.5T327,691t130,23q64,0 114-24.5T655,623t51-95t17-111q0-64-22-125.5t-62-115T546,82T430.5,17.5T301-6Zm32,146q52,0 93,24.5t70,64t44,86T555,406q0,43-14,80t-43,59.5T423,568q-51,0-92-24t-70-63t-44.5-85.5T201,304q0-44 14-81t43.5-60T333,140ZM302,776l28,129H461L434,776H302Zm205,0l28,129H665L639,776H507Z" />
      <glyph unicode="&#xd7;" glyph-name="gid219" horiz-adv-x="496" d="M435,181L335,82l-96,95L144,82L45,181l95,95L50,367l100,99l90-90l90,90l99-99l-90-90l96-96Z" />
      <glyph unicode="&#xd8;" glyph-name="gid39" horiz-adv-x="733" d="M301-6Q236-6 186,18.5t-84,66t-51.5,95T33,291q0,64 22,126t62,116t93.5,94.5T327,691t130,23q64,0 114-24.5T655,623t51-95t17-111q0-64-22-125.5t-62-115T546,82T430.5,17.5T301-6Zm32,146q52,0 93,24.5t70,64t44,86T555,406q0,43-14,80t-43,59.5T423,568q-51,0-92-24t-70-63t-44.5-85.5T201,304q0-44 14-81t43.5-60T333,140ZM783,710L150,0H-26L607,710H783Z" />
      <glyph unicode="&#xd9;" glyph-name="gid52" horiz-adv-x="717" d="M293-6Q207-6 154.5,26t-76,87T55,236q0,27 3,54.5T67,347l78,363H309L231,347q-4-22-6.5-42T222,266q0-36 10-64t32.5-45T324,140q38,0 68,17.5t52,47T481,271t24,76l77,363H746L669,347q-16-74-47.5-138T543,96.5T433.5,21T293-6Zm58,919H495l22-130L406,767L351,913Z" />
      <glyph unicode="&#xda;" glyph-name="gid49" horiz-adv-x="717" d="M293-6Q207-6 154.5,26t-76,87T55,236q0,27 3,54.5T67,347l78,363H309L231,347q-4-22-6.5-42T222,266q0-36 10-64t32.5-45T324,140q38,0 68,17.5t52,47T481,271t24,76l77,363H746L669,347q-16-74-47.5-138T543,96.5T433.5,21T293-6ZM497,772L391,786l76,130H612L497,772Z" />
      <glyph unicode="&#xdb;" glyph-name="gid50" horiz-adv-x="717" d="M293-6Q207-6 154.5,26t-76,87T55,236q0,27 3,54.5T67,347l78,363H309L231,347q-4-22-6.5-42T222,266q0-36 10-64t32.5-45T324,140q38,0 68,17.5t52,47T481,271t24,76l77,363H746L669,347q-16-74-47.5-138T543,96.5T433.5,21T293-6Zm9,811L430,913H545l82-108l-90-36l-67,63l-94-63l-74,36Z" />
      <glyph unicode="&#xdc;" glyph-name="gid51" horiz-adv-x="717" d="M293-6Q207-6 154.5,26t-76,87T55,236q0,27 3,54.5T67,347l78,363H309L231,347q-4-22-6.5-42T222,266q0-36 10-64t32.5-45T324,140q38,0 68,17.5t52,47T481,271t24,76l77,363H746L669,347q-16-74-47.5-138T543,96.5T433.5,21T293-6Zm-4,782l28,129H448L421,776H289Zm205,0l28,129H652L626,776H494Z" />
      <glyph unicode="&#xdd;" glyph-name="gid57" horiz-adv-x="623" d="M213,244L77,710H255l69-326L535,710H713L375,242L324,0H160l53,244ZM438,772L332,786l76,130H553L438,772Z" />
      <glyph unicode="&#xde;" glyph-name="gid43" horiz-adv-x="584" d="M155,710H319L293,586H402q56,0 95-28.5t60.5-74T579,387T557.5,285.5T498,195t-87.5-64.5T305,106H190L168,0H4L155,710ZM327,250q16,0 31,9.5T385.5,286t20,38.5T413,370q0,23-6.5,39t-18,25T363,443H262L221,250H327Z" />
      <glyph unicode="&#xdf;" glyph-name="gid107" horiz-adv-x="542" d="M209,141q34,0 62.5,12t46,36T335,249q0,35-21,52.5T269,319H248l31,143h19q23,0 37,11t21,28t7,32q0,23-12.5,34.5T319,579t-33.5-10.5t-23.5-29T248,497L142,0H-10L102,525q12,55 50,97.5t93.5,67T363,714q72,0 116-36t44-99q0-39-16.5-76T465,440t-50-37q42-16 64.5-55T502,255q0-73-28.5-122.5T397.5,53T292.5,9T178-6l31,147Z" />
      <glyph unicode="&#xe0;" glyph-name="gid63" horiz-adv-x="634" d="M197-10q-58,0-99.5,27.5t-64,76T11,203q0,67 23,127T97,435.5T188.5,508T297,535q51,0 87.5-26.5T434,439l18,83H613L539,180q-1-6-1.5-11T537,159q0-23 25-24L534,0q-22-4-39-6T466-8Q427-8 404,7.5T381,59q0,4 0,8t1,9t2,11q-37-49-86.5-73T197-10Zm72,135q15,0 30.5,5.5T330,145t29,23t25,30l23,110q-3,27-15.5,47T360,387t-40,12q-28,0-53-14t-44.5-38t-31-54.5T180,229q0-30 10.5-53.5t30.5-37T269,125Zm-9,605H404l22-130L315,584L260,730Z" />
      <glyph unicode="&#xe1;" glyph-name="gid60" horiz-adv-x="634" d="M197-10q-58,0-99.5,27.5t-64,76T11,203q0,67 23,127T97,435.5T188.5,508T297,535q51,0 87.5-26.5T434,439l18,83H613L539,180q-1-6-1.5-11T537,159q0-23 25-24L534,0q-22-4-39-6T466-8Q427-8 404,7.5T381,59q0,4 0,8t1,9t2,11q-37-49-86.5-73T197-10Zm72,135q15,0 30.5,5.5T330,145t29,23t25,30l23,110q-3,27-15.5,47T360,387t-40,12q-28,0-53-14t-44.5-38t-31-54.5T180,229q0-30 10.5-53.5t30.5-37T269,125ZM409,589L303,603l76,130H524L409,589Z" />
      <glyph unicode="&#xe2;" glyph-name="gid61" horiz-adv-x="634" d="M197-10q-58,0-99.5,27.5t-64,76T11,203q0,67 23,127T97,435.5T188.5,508T297,535q51,0 87.5-26.5T434,439l18,83H613L539,180q-1-6-1.5-11T537,159q0-23 25-24L534,0q-22-4-39-6T466-8Q427-8 404,7.5T381,59q0,4 0,8t1,9t2,11q-37-49-86.5-73T197-10Zm72,135q15,0 30.5,5.5T330,145t29,23t25,30l23,110q-3,27-15.5,47T360,387t-40,12q-28,0-53-14t-44.5-38t-31-54.5T180,229q0-30 10.5-53.5t30.5-37T269,125ZM218,622L346,730H461l82-108l-90-36l-67,63l-94-63l-74,36Z" />
      <glyph unicode="&#xe3;" glyph-name="gid65" horiz-adv-x="634" d="M197-10q-58,0-99.5,27.5t-64,76T11,203q0,67 23,127T97,435.5T188.5,508T297,535q51,0 87.5-26.5T434,439l18,83H613L539,180q-1-6-1.5-11T537,159q0-23 25-24L534,0q-22-4-39-6T466-8Q427-8 404,7.5T381,59q0,4 0,8t1,9t2,11q-37-49-86.5-73T197-10Zm72,135q15,0 30.5,5.5T330,145t29,23t25,30l23,110q-3,27-15.5,47T360,387t-40,12q-28,0-53-14t-44.5-38t-31-54.5T180,229q0-30 10.5-53.5t30.5-37T269,125ZM430,588q-29,0-47,11.5t-33.5,23T313,634t-33-11t-16.5-23T259,586H172q3,11 14.5,34.5t31.5,48t47.5,42T326,728q23,0 38-7t26.5-17T414,687t29-7q22,0 35,11.5T497,716t6,14h85q-2-8-13.5-30.5t-32-48t-49-44.5T430,588Z" />
      <glyph unicode="&#xe4;" glyph-name="gid62" horiz-adv-x="634" d="M197-10q-58,0-99.5,27.5t-64,76T11,203q0,67 23,127T97,435.5T188.5,508T297,535q51,0 87.5-26.5T434,439l18,83H613L539,180q-1-6-1.5-11T537,159q0-23 25-24L534,0q-22-4-39-6T466-8Q427-8 404,7.5T381,59q0,4 0,8t1,9t2,11q-37-49-86.5-73T197-10Zm72,135q15,0 30.5,5.5T330,145t29,23t25,30l23,110q-3,27-15.5,47T360,387t-40,12q-28,0-53-14t-44.5-38t-31-54.5T180,229q0-30 10.5-53.5t30.5-37T269,125ZM205,593l28,129H364L337,593H205Zm205,0l28,129H568L542,593H410Z" />
      <glyph unicode="&#xe5;" glyph-name="gid64" horiz-adv-x="634" d="M197-10q-58,0-99.5,27.5t-64,76T11,203q0,67 23,127T97,435.5T188.5,508T297,535q51,0 87.5-26.5T434,439l18,83H613L539,180q-1-6-1.5-11T537,159q0-23 25-24L534,0q-22-4-39-6T466-8Q427-8 404,7.5T381,59q0,4 0,8t1,9t2,11q-37-49-86.5-73T197-10Zm72,135q15,0 30.5,5.5T330,145t29,23t25,30l23,110q-3,27-15.5,47T360,387t-40,12q-28,0-53-14t-44.5-38t-31-54.5T180,229q0-30 10.5-53.5t30.5-37T269,125Zm10,507q0,47 35,72.5T403,730q42,0 65-17t23-49q0-46-34-71.5T368,567q-41,0-65,17t-24,48Zm114,51q-19,0-32.5-11T347,643q0-13 8.5-21t22.5-8q18,0 32.5,12T425,655q0,12-9,20t-23,8Z" />
      <glyph unicode="&#xe6;" glyph-name="gid66" horiz-adv-x="898" d="M131-10Q66-10 27,29t-39,99q0,58 34.5,104T115,305t129,27q29,0 55.5-5.5T345,312q3,14 7,27t4,26q0,29-19.5,44.5T276,425t-81.5-14.5T109,367L83,467q112,68 232,68q57,0 97.5-16.5T477,471q38,29 84.5,46.5T661,535q73,0 121-30t72.5-79.5T879,316q0-38-8-62.5T857,213H492q-1-5-1.5-10.5T490,190q0-27 11.5-46t31-29T576,105q32,0 64.5,17T689,168l128-38q-28-41-69-72.5T655.5,8T546-10q-74,0-123.5,29T350,95q-32-37-71-60.5t-78-34T131-10Zm73,115q16,0 33,4.5T270.5,121T301,137.5T324,158q-1,5-1.5,10T322,179q0,12 1.5,24t3.5,25q-16,7-37,11t-39,4q-28,0-52.5-11T159,202t-15-43q0-15 7-27t20-19.5t33-7.5ZM712,310q1,6 1,10t0,11q0,27-9.5,47t-27,31T633,420q-27,0-52-14t-43.5-38T509,310H712Z" />
      <glyph unicode="&#xe7;" glyph-name="gid69" horiz-adv-x="548" d="M231-10q-74,0-123,30.5T35,101T11,211q0,62 24,119.5T103,434t105.5,73.5T345,535q87,0 138.5-38.5T552,396L387,349q-9,24-27,37t-44,13q-27,0-52-12.5T219.5,351t-31-54T177,229q0-31 10-54.5T215.5,138T257,125q18,0 35.5,6.5T325,150t25,27l146-48q-28-40-68-71.5T338,8T231-10ZM177-210q-25,0-50.5,8T77-178l56,83q8-10 19-15t21-5q20,0 34.5,14T222-63q0,17-6,32.5T199,0l57,32q21-23 37-50.5T309-82q0-33-15.5-62.5T249-192t-72-18Z" />
      <glyph unicode="&#xe8;" glyph-name="gid76" horiz-adv-x="558" d="M232-10q-68,0-117.5,28t-76,78.5T12,212q0,67 26,125t72,102.5t107.5,70T350,535q60,0 103.5-17.5t67-51T544,385q0-85-78.5-129.5T232,211q-30,0-65.5,1.5T93,218l20,98q32-3 61-4.5t58-1.5q59,0 93.5,6.5T375,337t15,34q0,16-8.5,26.5t-23,16.5T324,420q-33,0-61-17t-48.5-47t-32-68.5T171,205q0-31 9-53.5T209.5,117T261,105q36,0 66.5,17T377,169l126-40q-27-41-71-72.5t-95.5-49T232-10Zm22,737H398l22-130L309,581L254,727Z" />
      <glyph unicode="&#xe9;" glyph-name="gid73" horiz-adv-x="558" d="M232-10q-68,0-117.5,28t-76,78.5T12,212q0,67 26,125t72,102.5t107.5,70T350,535q60,0 103.5-17.5t67-51T544,385q0-85-78.5-129.5T232,211q-30,0-65.5,1.5T93,218l20,98q32-3 61-4.5t58-1.5q59,0 93.5,6.5T375,337t15,34q0,16-8.5,26.5t-23,16.5T324,420q-33,0-61-17t-48.5-47t-32-68.5T171,205q0-31 9-53.5T209.5,117T261,105q36,0 66.5,17T377,169l126-40q-27-41-71-72.5t-95.5-49T232-10ZM409,586L303,600l76,130H524L409,586Z" />
      <glyph unicode="&#xea;" glyph-name="gid74" horiz-adv-x="558" d="M232-10q-68,0-117.5,28t-76,78.5T12,212q0,67 26,125t72,102.5t107.5,70T350,535q60,0 103.5-17.5t67-51T544,385q0-85-78.5-129.5T232,211q-30,0-65.5,1.5T93,218l20,98q32-3 61-4.5t58-1.5q59,0 93.5,6.5T375,337t15,34q0,16-8.5,26.5t-23,16.5T324,420q-33,0-61-17t-48.5-47t-32-68.5T171,205q0-31 9-53.5T209.5,117T261,105q36,0 66.5,17T377,169l126-40q-27-41-71-72.5t-95.5-49T232-10ZM203,619L331,727H446l82-108l-90-36l-67,63l-94-63l-74,36Z" />
      <glyph unicode="&#xeb;" glyph-name="gid75" horiz-adv-x="558" d="M232-10q-68,0-117.5,28t-76,78.5T12,212q0,67 26,125t72,102.5t107.5,70T350,535q60,0 103.5-17.5t67-51T544,385q0-85-78.5-129.5T232,211q-30,0-65.5,1.5T93,218l20,98q32-3 61-4.5t58-1.5q59,0 93.5,6.5T375,337t15,34q0,16-8.5,26.5t-23,16.5T324,420q-33,0-61-17t-48.5-47t-32-68.5T171,205q0-31 9-53.5T209.5,117T261,105q36,0 66.5,17T377,169l126-40q-27-41-71-72.5t-95.5-49T232-10ZM190,590l28,129H349L322,590H190Zm205,0l28,129H553L527,590H395Z" />
      <glyph unicode="&#xec;" glyph-name="gid86" horiz-adv-x="268" d="M102,525H262L150,0H-10L102,525Zm-2,205H244l22-130L155,584L100,730Z" />
      <glyph unicode="&#xed;" glyph-name="gid82" horiz-adv-x="268" d="M102,525H262L150,0H-10L102,525Zm134,61L130,600l76,130H351L236,586Z" />
      <glyph unicode="&#xee;" glyph-name="gid83" horiz-adv-x="268" d="M102,525H262L150,0H-10L102,525ZM40,622L168,730H283l82-108l-90-36l-67,63l-94-63L40,622Z" />
      <glyph unicode="&#xef;" glyph-name="gid84" horiz-adv-x="268" d="M102,525H262L150,0H-10L102,525ZM27,594L55,723H186L159,594H27Zm205,0l28,129H390L364,594H232Z" />
      <glyph unicode="&#xf0;" glyph-name="gid71" horiz-adv-x="597" d="M574,377q0-88-25.5-159T476,95.5T366.5,17T229-10q-67,0-116.5,26t-77,71.5T8,191q0,57 23.5,107.5t64,89.5t91,61.5T292,472q42,0 77-17t55-47q-1,17-2.5,33T417,472q-11,49-35.5,93t-66,85.5T211,730H408q54-31 91-87.5T555,517t19-140ZM175,212q0-25 10-45t29-31t45-11q27,0 50.5,10.5t42,29T380,207t10,51q0,25-10,44.5T351.5,333T306,344t-50.5-10t-42-28.5t-28.5-42T175,212ZM593,651L470,590l-52-15L301,516l-32,61l116,58l48,13l128,64l32-61Z" />
      <glyph unicode="&#xf1;" glyph-name="gid93" horiz-adv-x="591" d="M102,525H246l-19-88q25,31 58,53t72.5,33.5T440,535q47,0 72-17t35.5-44.5T558,414q0-20-3-39.5T549,336L478,0H318l63,295q2,12 3,21.5t1,18.5q0,31-13.5,45T337,394q-19,0-42-12t-44.5-33T214,301L150,0H-10L102,525Zm335,63q-29,0-47,11.5t-33.5,23T320,634t-33-11t-16.5-23T266,586H179q3,11 14.5,34.5t31.5,48t47.5,42T333,728q23,0 38-7t26.5-17T421,687t29-7q22,0 35,11.5T504,716t6,14h85q-2-8-13.5-30.5t-32-48t-49-44.5T437,588Z" />
      <glyph unicode="&#xf2;" glyph-name="gid98" horiz-adv-x="591" d="M237-10q-79,0-129,30.5t-73.5,81T11,213q0,64 23.5,122T101,438t102.5,71T337,535q80,0 129.5-30t73-80.5T563,312q0-63-23.5-121T473,87.5T370.5,16T237-10Zm23,135q27,0 51.5,12.5T355,173t30,54t11,66q0,33-9.5,56.5T359,386t-45,13q-26,0-50.5-12.5t-44-35.5T189,297t-11-67q0-31 9.5-55t28-37T260,125ZM245,730H389l22-130L300,584L245,730Z" />
      <glyph unicode="&#xf3;" glyph-name="gid95" horiz-adv-x="591" d="M237-10q-79,0-129,30.5t-73.5,81T11,213q0,64 23.5,122T101,438t102.5,71T337,535q80,0 129.5-30t73-80.5T563,312q0-63-23.5-121T473,87.5T370.5,16T237-10Zm23,135q27,0 51.5,12.5T355,173t30,54t11,66q0,33-9.5,56.5T359,386t-45,13q-26,0-50.5-12.5t-44-35.5T189,297t-11-67q0-31 9.5-55t28-37T260,125ZM408,586L302,600l76,130H523L408,586Z" />
      <glyph unicode="&#xf4;" glyph-name="gid96" horiz-adv-x="591" d="M237-10q-79,0-129,30.5t-73.5,81T11,213q0,64 23.5,122T101,438t102.5,71T337,535q80,0 129.5-30t73-80.5T563,312q0-63-23.5-121T473,87.5T370.5,16T237-10Zm23,135q27,0 51.5,12.5T355,173t30,54t11,66q0,33-9.5,56.5T359,386t-45,13q-26,0-50.5-12.5t-44-35.5T189,297t-11-67q0-31 9.5-55t28-37T260,125ZM202,619L330,727H445l82-108l-90-36l-67,63l-94-63l-74,36Z" />
      <glyph unicode="&#xf5;" glyph-name="gid100" horiz-adv-x="591" d="M237-10q-79,0-129,30.5t-73.5,81T11,213q0,64 23.5,122T101,438t102.5,71T337,535q80,0 129.5-30t73-80.5T563,312q0-63-23.5-121T473,87.5T370.5,16T237-10Zm23,135q27,0 51.5,12.5T355,173t30,54t11,66q0,33-9.5,56.5T359,386t-45,13q-26,0-50.5-12.5t-44-35.5T189,297t-11-67q0-31 9.5-55t28-37T260,125ZM422,585q-29,0-47,11.5t-33.5,23T305,631t-33-11t-16.5-23T251,583H164q3,11 14.5,34.5t31.5,48t47.5,42T318,725q23,0 38-7t26.5-17T406,684t29-7q22,0 35,11.5T489,713t6,14h85q-2-8-13.5-30.5t-32-48t-49-44.5T422,585Z" />
      <glyph unicode="&#xf6;" glyph-name="gid97" horiz-adv-x="591" d="M237-10q-79,0-129,30.5t-73.5,81T11,213q0,64 23.5,122T101,438t102.5,71T337,535q80,0 129.5-30t73-80.5T563,312q0-63-23.5-121T473,87.5T370.5,16T237-10Zm23,135q27,0 51.5,12.5T355,173t30,54t11,66q0,33-9.5,56.5T359,386t-45,13q-26,0-50.5-12.5t-44-35.5T189,297t-11-67q0-31 9.5-55t28-37T260,125ZM190,590l28,129H349L322,590H190Zm205,0l28,129H553L527,590H395Z" />
      <glyph unicode="&#xf7;" glyph-name="gid220" horiz-adv-x="513" d="M190,426V569H325V426H190Zm0-388V181H325V38H190ZM55,240V367H459V240H55Z" />
      <glyph unicode="&#xf8;" glyph-name="gid99" horiz-adv-x="591" d="M229-10q-72,0-120.5,30t-73,80T11,209q0,62 24,120t68.5,104.5t105.5,74T345,535q73,0 121.5-30T539,425.5T563,316q0-62-24-120T471,91T365.5,17T229-10Zm29,135q27,0 52,13t44.5,36.5t31,54.5T397,296q0,31-10,54t-28,36t-43,13q-27,0-52-13t-44-36.5T189.5,295T178,228q0-30 10-53.5T215.5,138T258,125ZM122,139l35-47L53-5H-33L122,139Zm14,9L411,429l42-33L168,106l-32,42ZM421,443l93,87h87L468,406l-47,37Z" />
      <glyph unicode="&#xf9;" glyph-name="gid113" horiz-adv-x="606" d="M139-10Q16-10 16,116q0,17 2.5,34.5T25,189L97,525H256L192,224q-5-22-5-39q0-60 50-60q19,0 38,7.5T315,157t41,44l69,324H585L512,180q-1-6-2-11t-1-10q0-23 26-24L506,0q-22-4-39-6T438-8Q399-8 375.5,7T352,56q0,4 1,8.5T355,76t2,15Q312,39 256.5,14.5T139-10ZM246,730H390l22-130L301,584L246,730Z" />
      <glyph unicode="&#xfa;" glyph-name="gid110" horiz-adv-x="606" d="M139-10Q16-10 16,116q0,17 2.5,34.5T25,189L97,525H256L192,224q-5-22-5-39q0-60 50-60q19,0 38,7.5T315,157t41,44l69,324H585L512,180q-1-6-2-11t-1-10q0-23 26-24L506,0q-22-4-39-6T438-8Q399-8 375.5,7T352,56q0,4 1,8.5T355,76t2,15Q312,39 256.5,14.5T139-10ZM397,589L291,603l76,130H512L397,589Z" />
      <glyph unicode="&#xfb;" glyph-name="gid111" horiz-adv-x="606" d="M139-10Q16-10 16,116q0,17 2.5,34.5T25,189L97,525H256L192,224q-5-22-5-39q0-60 50-60q19,0 38,7.5T315,157t41,44l69,324H585L512,180q-1-6-2-11t-1-10q0-23 26-24L506,0q-22-4-39-6T438-8Q399-8 375.5,7T352,56q0,4 1,8.5T355,76t2,15Q312,39 256.5,14.5T139-10Zm65,632L332,730H447l82-108l-90-36l-67,63l-94-63l-74,36Z" />
      <glyph unicode="&#xfc;" glyph-name="gid112" horiz-adv-x="606" d="M139-10Q16-10 16,116q0,17 2.5,34.5T25,189L97,525H256L192,224q-5-22-5-39q0-60 50-60q19,0 38,7.5T315,157t41,44l69,324H585L512,180q-1-6-2-11t-1-10q0-23 26-24L506,0q-22-4-39-6T438-8Q399-8 375.5,7T352,56q0,4 1,8.5T355,76t2,15Q312,39 256.5,14.5T139-10Zm48,603l28,129H346L319,593H187Zm205,0l28,129H550L524,593H392Z" />
      <glyph unicode="&#xfd;" glyph-name="gid118" horiz-adv-x="531" d="M-50-111q39,2 64.5,7.5T58-84.5T94-48l29,37L45,525H208l29-388l34,56q25,41 45.5,81T353,354.5t28.5,83T404,525H558q-13-48-29-91t-38-89T435.5,241T352,103L272-26q-36-57-70-96t-69.5-63T57-220t-88-11L-50-111ZM365,586L259,600l76,130H480L365,586Z" />
      <glyph unicode="&#xfe;" glyph-name="gid103" horiz-adv-x="612" d="M-56-213L140,710H305L253,471q31,30 70,47t85,17q57,0 97.5-28.5T568,430t22-109q0-66-23-125.5t-62-106t-90-73T309-10T217.5,15.5T168,85L104-213H-56ZM283,125q27,0 52,14.5T380,178t31.5,54.5T423,295q0,30-11,53.5t-31,37T333,399q-14,0-29.5-5T273,379.5T244.5,357T219,327L196,219q5-27 16.5-48t30-33.5T283,125Z" />
      <glyph unicode="&#xff;" glyph-name="gid119" horiz-adv-x="531" d="M-50-111q39,2 64.5,7.5T58-84.5T94-48l29,37L45,525H208l29-388l34,56q25,41 45.5,81T353,354.5t28.5,83T404,525H558q-13-48-29-91t-38-89T435.5,241T352,103L272-26q-36-57-70-96t-69.5-63T57-220t-88-11L-50-111ZM145,590l28,129H304L277,590H145Zm205,0l28,129H508L482,590H350Z" />
      <glyph unicode="&#x2013;" glyph-name="gid191" horiz-adv-x="595" d="M32,203L63,347H551L520,203H32Z" />
      <glyph unicode="&#x2014;" glyph-name="gid190" horiz-adv-x="900" d="M32,203L63,347H856L825,203H32Z" />
      <glyph unicode="&#x2018;" glyph-name="gid201" horiz-adv-x="267" d="M285,730L235,604h45L249,457H85l31,150l64,123H285Z" />
      <glyph unicode="&#x2019;" glyph-name="gid202" horiz-adv-x="256" d="M109,501l50,126H114l31,147H309L277,624L214,501H109Z" />
      <glyph unicode="&#x201a;" glyph-name="gid203" horiz-adv-x="273" d="M-17-140L36,0H-9L26,163H190L155-4L88-140H-17Z" />
      <glyph unicode="&#x201c;" glyph-name="gid199" horiz-adv-x="468" d="M285,730L235,604h45L249,457H85l31,150l64,123H285Zm201,0L436,604h45L450,457H286l31,150l64,123H486Z" />
      <glyph unicode="&#x201d;" glyph-name="gid200" horiz-adv-x="457" d="M310,501l50,126H315l31,147H510L478,624L414,501H310Zm-201,0l50,126H114l31,147H309L277,624L214,501H109Z" />
      <glyph unicode="&#x201e;" glyph-name="gid198" horiz-adv-x="478" d="M-17-140L36,0H-9L26,163H190L155-4L88-140H-17Zm205,0L242,0H196l35,163H395L360-4L293-140H188Z" />
      <glyph unicode="&#x2022;" glyph-name="gid168" horiz-adv-x="358" d="M298,371q0-35-19-64.5T229.5,259T165,241q-37,0-61,26.5T80,332q0,34 19,64t49.5,47.5T212,461q39,0 62.5-26.5T298,371Z" />
      <glyph unicode="&#x2039;" glyph-name="gid196" horiz-adv-x="347" d="M32,293L331,486L304,357L150,259l113-91L236,39L15,217l17,76Z" />
      <glyph unicode="&#x203a;" glyph-name="gid197" horiz-adv-x="347" d="M296,217L0,39L27,168l152,91L67,357L94,486L312,293l-16-76Z" />
    </font>
</defs>
</svg>
